HIERARCHY
ROOT Hips
{
	OFFSET 0.000000 83.214638 0.000000
	CHANNELS 6 Xposition Yposition Zposition Xrotation Yrotation Zrotation
	JOINT Pelvis
	{
		OFFSET 0.000000 0.000000 0.000000
		CHANNELS 3 Xrotation Yrotation Zrotation
		JOINT LeftUpLeg
		{
			OFFSET 8.479700 -4.795502 -0.379100
			CHANNELS 3 Xrotation Yrotation Zrotation
			JOINT LeftLeg
			{
				OFFSET 0.024144 -32.555107 0.112900
				CHANNELS 3 Xrotation Yrotation Zrotation
				JOINT LeftFoot
				{
					OFFSET -0.024144 -32.638630 -3.012600
					CHANNELS 3 Xrotation Yrotation Zrotation
					JOINT LeftToeBase
					{
						OFFSET 0.970200 -13.225400 11.864200
						CHANNELS 3 Xrotation Yrotation Zrotation
						End Site
						{
							OFFSET 0.000000 12.319262 0.000000
						}
					}
					JOINT LFootTongue
					{
						OFFSET 1.142400 -1.059800 6.665200
						CHANNELS 3 Xrotation Yrotation Zrotation
						End Site
						{
							OFFSET 0.000000 12.319262 0.000000
						}
					}
				}
				JOINT LeftPantLeg
				{
					OFFSET 0.918482 -16.533964 -2.284700
					CHANNELS 3 Xrotation Yrotation Zrotation
					End Site
					{
						OFFSET 0.350399 24.744368 0.000000
					}
				}
			}
		}
		JOINT RightUpLeg
		{
			OFFSET -8.479700 -4.795502 -0.379100
			CHANNELS 3 Xrotation Yrotation Zrotation
			JOINT RightLeg
			{
				OFFSET -0.023144 -32.555092 0.112900
				CHANNELS 3 Xrotation Yrotation Zrotation
				JOINT RightFoot
				{
					OFFSET 0.023144 -32.638641 -3.012700
					CHANNELS 3 Xrotation Yrotation Zrotation
					JOINT RightToeBase
					{
						OFFSET -0.970200 -13.225400 11.864200
						CHANNELS 3 Xrotation Yrotation Zrotation
						End Site
						{
							OFFSET 0.000000 12.319244 0.000000
						}
					}
					JOINT RFootTongue
					{
						OFFSET -1.142200 -1.059800 6.665200
						CHANNELS 3 Xrotation Yrotation Zrotation
						End Site
						{
							OFFSET 0.000000 12.319243 0.000000
						}
					}
				}
				JOINT RightPantLeg
				{
					OFFSET -0.919482 -16.533978 -2.284800
					CHANNELS 3 Xrotation Yrotation Zrotation
					End Site
					{
						OFFSET -0.350400 24.744419 0.000000
					}
				}
			}
		}
	}
	JOINT Spine
	{
		OFFSET 0.000000 7.722000 1.166200
		CHANNELS 3 Xrotation Yrotation Zrotation
		JOINT Spine1
		{
			OFFSET 0.000000 12.024101 0.248800
			CHANNELS 3 Xrotation Yrotation Zrotation
			JOINT Spine2
			{
				OFFSET 0.000000 11.502998 -0.491200
				CHANNELS 3 Xrotation Yrotation Zrotation
				JOINT Neck
				{
					OFFSET 0.000000 18.430702 -3.123100
					CHANNELS 3 Xrotation Yrotation Zrotation
					JOINT Head
					{
						OFFSET 0.000000 9.051102 1.034000
						CHANNELS 3 Xrotation Yrotation Zrotation
						JOINT HairB
						{
							OFFSET 0.208400 24.786102 24.822300
							CHANNELS 3 Xrotation Yrotation Zrotation
							End Site
							{
								OFFSET 0.000000 32.263779 0.000000
							}
						}
						JOINT HairA
						{
							OFFSET -7.081100 24.428299 23.196600
							CHANNELS 3 Xrotation Yrotation Zrotation
							End Site
							{
								OFFSET 0.000000 32.263779 0.000000
							}
						}
						JOINT Hat
						{
							OFFSET 16.728800 15.048294 -15.439601
							CHANNELS 3 Xrotation Yrotation Zrotation
							End Site
							{
								OFFSET 0.000000 32.263779 0.000000
							}
						}
					}
				}
				JOINT LeftShoulder
				{
					OFFSET 6.197800 13.665199 -4.064700
					CHANNELS 3 Xrotation Yrotation Zrotation
					JOINT LeftArm
					{
						OFFSET 7.778100 -0.187103 -1.709300
						CHANNELS 3 Xrotation Yrotation Zrotation
						JOINT LeftForeArm
						{
							OFFSET 22.049376 0.000000 0.000000
							CHANNELS 3 Xrotation Yrotation Zrotation
							JOINT LeftHand
							{
								OFFSET 23.009392 0.000000 0.000000
								CHANNELS 3 Xrotation Yrotation Zrotation
								JOINT LeftHandThumb1
								{
									OFFSET 3.507191 -2.063065 3.133727
									CHANNELS 3 Xrotation Yrotation Zrotation
									JOINT LeftHandThumb2
									{
										OFFSET 3.101337 -1.790558 1.790558
										CHANNELS 3 Xrotation Yrotation Zrotation
										JOINT LeftHandThumb3
										{
											OFFSET 3.058640 -1.765907 1.765906
											CHANNELS 3 Xrotation Yrotation Zrotation
											End Site
											{
												OFFSET -0.415260 3.926476 -0.049563
											}
										}
									}
								}
								JOINT LeftHandIndex1
								{
									OFFSET 11.334419 -0.901459 3.706815
									CHANNELS 3 Xrotation Yrotation Zrotation
									JOINT LeftHandIndex2
									{
										OFFSET 3.283112 0.000000 0.000000
										CHANNELS 3 Xrotation Yrotation Zrotation
										JOINT LeftHandIndex3
										{
											OFFSET 3.323853 0.000000 0.000000
											CHANNELS 3 Xrotation Yrotation Zrotation
											End Site
											{
												OFFSET -1.135597 3.097809 0.402452
											}
										}
									}
								}
								JOINT LeftHandMiddle1
								{
									OFFSET 11.335861 0.000000 0.000000
									CHANNELS 3 Xrotation Yrotation Zrotation
									JOINT LeftHandMiddle2
									{
										OFFSET 3.410492 0.000000 0.000000
										CHANNELS 3 Xrotation Yrotation Zrotation
										JOINT LeftHandMiddle3
										{
											OFFSET 3.312172 0.000000 0.000000
											CHANNELS 3 Xrotation Yrotation Zrotation
											End Site
											{
												OFFSET -1.150200 3.080154 0.400270
											}
										}
									}
								}
								JOINT LeftHandRing1
								{
									OFFSET 11.514786 -0.013176 -3.003090
									CHANNELS 3 Xrotation Yrotation Zrotation
									JOINT LeftHandRing2
									{
										OFFSET 3.053307 0.000000 0.000000
										CHANNELS 3 Xrotation Yrotation Zrotation
										JOINT LeftHandRing3
										{
											OFFSET 3.295807 0.000000 0.000000
											CHANNELS 3 Xrotation Yrotation Zrotation
											End Site
											{
												OFFSET -1.281006 3.013344 0.375733
											}
										}
									}
								}
								JOINT LeftHandPinky1
								{
									OFFSET 10.518692 -0.960396 -5.730441
									CHANNELS 3 Xrotation Yrotation Zrotation
									JOINT LeftHandPinky2
									{
										OFFSET 2.861649 0.000000 0.000000
										CHANNELS 3 Xrotation Yrotation Zrotation
										JOINT LeftHandPinky3
										{
											OFFSET 2.863380 0.000000 0.000000
											CHANNELS 3 Xrotation Yrotation Zrotation
											End Site
											{
												OFFSET -0.843597 2.711159 0.369971
											}
										}
									}
								}
							}
							JOINT LSleeve
							{
								OFFSET 6.676277 -0.344902 -1.011730
								CHANNELS 3 Xrotation Yrotation Zrotation
								End Site
								{
									OFFSET 0.000000 14.885353 0.000000
								}
							}
						}
					}
				}
				JOINT RightShoulder
				{
					OFFSET -6.197800 13.665199 -4.064700
					CHANNELS 3 Xrotation Yrotation Zrotation
					JOINT RightArm
					{
						OFFSET -7.778100 -0.187103 -1.709300
						CHANNELS 3 Xrotation Yrotation Zrotation
						JOINT RightForeArm
						{
							OFFSET -22.049376 0.000000 0.000000
							CHANNELS 3 Xrotation Yrotation Zrotation
							JOINT RightHand
							{
								OFFSET -23.009392 0.000000 0.000000
								CHANNELS 3 Xrotation Yrotation Zrotation
								JOINT RightHandThumb1
								{
									OFFSET -3.507191 -2.063065 3.133727
									CHANNELS 3 Xrotation Yrotation Zrotation
									JOINT RightHandThumb2
									{
										OFFSET -3.101337 -1.790558 1.790558
										CHANNELS 3 Xrotation Yrotation Zrotation
										JOINT RightHandThumb3
										{
											OFFSET -3.058640 -1.765907 1.765906
											CHANNELS 3 Xrotation Yrotation Zrotation
											End Site
											{
												OFFSET 0.415260 3.926476 -0.049563
											}
										}
									}
								}
								JOINT RightHandIndex1
								{
									OFFSET -11.334419 -0.901459 3.706815
									CHANNELS 3 Xrotation Yrotation Zrotation
									JOINT RightHandIndex2
									{
										OFFSET -3.283112 0.000000 0.000000
										CHANNELS 3 Xrotation Yrotation Zrotation
										JOINT RightHandIndex3
										{
											OFFSET -3.323853 0.000000 0.000000
											CHANNELS 3 Xrotation Yrotation Zrotation
											End Site
											{
												OFFSET 1.135597 3.097809 0.402452
											}
										}
									}
								}
								JOINT RightHandMiddle1
								{
									OFFSET -11.335861 0.000000 0.000000
									CHANNELS 3 Xrotation Yrotation Zrotation
									JOINT RightHandMiddle2
									{
										OFFSET -3.410492 0.000000 0.000000
										CHANNELS 3 Xrotation Yrotation Zrotation
										JOINT RightHandMiddle3
										{
											OFFSET -3.312172 0.000000 0.000000
											CHANNELS 3 Xrotation Yrotation Zrotation
											End Site
											{
												OFFSET 1.150200 3.080154 0.400270
											}
										}
									}
								}
								JOINT RightHandRing1
								{
									OFFSET -11.514786 -0.013176 -3.003090
									CHANNELS 3 Xrotation Yrotation Zrotation
									JOINT RightHandRing2
									{
										OFFSET -3.053307 0.000000 0.000000
										CHANNELS 3 Xrotation Yrotation Zrotation
										JOINT RightHandRing3
										{
											OFFSET -3.295807 0.000000 0.000000
											CHANNELS 3 Xrotation Yrotation Zrotation
											End Site
											{
												OFFSET 1.281006 3.013344 0.375733
											}
										}
									}
								}
								JOINT RightHandPinky1
								{
									OFFSET -10.518692 -0.960396 -5.730441
									CHANNELS 3 Xrotation Yrotation Zrotation
									JOINT RightHandPinky2
									{
										OFFSET -2.861649 0.000000 0.000000
										CHANNELS 3 Xrotation Yrotation Zrotation
										JOINT RightHandPinky3
										{
											OFFSET -2.863380 0.000000 0.000000
											CHANNELS 3 Xrotation Yrotation Zrotation
											End Site
											{
												OFFSET 0.843597 2.711159 0.369971
											}
										}
									}
								}
							}
							JOINT RSleeve
							{
								OFFSET -6.676277 -0.344902 -1.011730
								CHANNELS 3 Xrotation Yrotation Zrotation
								End Site
								{
									OFFSET 0.000000 14.885353 0.000000
								}
							}
						}
					}
				}
				JOINT Backpack
				{
					OFFSET 0.000000 -2.471497 36.677502
					CHANNELS 3 Xrotation Yrotation Zrotation
					End Site
					{
						OFFSET 0.000000 20.427315 0.000000
					}
				}
				JOINT Hood
				{
					OFFSET 0.000000 18.754097 -10.431000
					CHANNELS 3 Xrotation Yrotation Zrotation
					JOINT Hood1
					{
						OFFSET 0.000000 -5.011002 -7.685901
						CHANNELS 3 Xrotation Yrotation Zrotation
						End Site
						{
							OFFSET 0.000000 9.175140 0.000000
						}
					}
				}
				JOINT LHoodieString
				{
					OFFSET 5.250500 16.397697 3.089900
					CHANNELS 3 Xrotation Yrotation Zrotation
					JOINT LHoodieString1
					{
						OFFSET 0.257700 -6.364304 3.694600
						CHANNELS 3 Xrotation Yrotation Zrotation
						JOINT LHoodieString2
						{
							OFFSET 0.000000 -9.643799 2.679100
							CHANNELS 3 Xrotation Yrotation Zrotation
							End Site
							{
								OFFSET 0.000000 10.009018 0.000000
							}
						}
					}
				}
				JOINT RHoodieString
				{
					OFFSET -5.250500 16.397697 3.089900
					CHANNELS 3 Xrotation Yrotation Zrotation
					JOINT RHoodieString1
					{
						OFFSET -0.257700 -6.364304 3.694600
						CHANNELS 3 Xrotation Yrotation Zrotation
						JOINT RHoodieString2
						{
							OFFSET 0.000000 -9.643799 2.679100
							CHANNELS 3 Xrotation Yrotation Zrotation
							End Site
							{
								OFFSET 0.000000 10.009018 0.000000
							}
						}
					}
				}
			}
			JOINT LBackpack_Strap
			{
				OFFSET 15.223200 -7.719803 -6.610900
				CHANNELS 3 Xrotation Yrotation Zrotation
				End Site
				{
					OFFSET 0.000000 16.040596 0.000000
				}
			}
			JOINT RBackpack_Strap
			{
				OFFSET -15.223000 -7.719803 -6.610900
				CHANNELS 3 Xrotation Yrotation Zrotation
				End Site
				{
					OFFSET 0.000000 16.040596 0.000000
				}
			}
		}
	}
	JOINT BoyFacialAnim_Joint
	{
		OFFSET 1.000000 -82.208099 -1.550900
		CHANNELS 3 Xrotation Yrotation Zrotation
		End Site
		{
			OFFSET 0.000000 30.012791 0.000000
		}
	}
}
MOTION
Frames: 4
Frame Time: 0.033333
-0.169114 73.868607 0.175030 3.016505 -58.257354 6.570156 -0.000000 0.000003 0.000000 -35.247307 10.179751 24.279693 43.156052 -7.473491 -9.787392 -9.604351 -2.815582 -8.044956 0.000000 0.000001 -0.000000 0.000000 0.000001 -0.000000 0.000001 0.000003 -0.000000 -32.836319 -8.277659 -25.536221 48.052126 2.410483 -7.553196 -19.169343 2.845119 20.705787 0.000000 0.000001 0.000000 0.000000 0.000001 0.000000 0.000001 -0.000002 -0.000001 11.191653 0.111540 -2.787662 8.434584 0.027736 -5.592338 8.457036 0.027875 -5.591859 -21.555753 25.063299 12.062719 -0.293888 25.465860 -3.209062 0.000000 -0.000000 -0.000000 0.000000 -0.000000 -0.000000 0.000000 -0.000000 -0.000000 -6.221639 -11.503791 -4.023773 -23.062284 9.568458 -36.639628 0.046086 -43.168879 -0.011156 22.743768 -5.686015 15.979345 -1.064235 -7.954950 8.490075 2.373426 19.986109 -2.038344 -0.000001 -0.000001 -0.000000 13.340857 -1.006674 10.682249 -0.167577 0.303415 -31.105627 -0.000003 -0.000001 0.000002 8.495423 -0.329527 -0.915326 0.231509 0.661217 -29.901837 0.000002 -0.000001 -0.000000 6.111749 3.150928 -16.210961 0.047080 0.322455 -30.125492 -0.000001 -0.000001 -0.000008 -5.636041 7.709895 -13.878606 0.224356 0.276557 -46.588338 -0.000001 0.000001 -0.000002 -0.000001 0.000001 0.000004 -5.488227 10.658291 2.466476 -41.473810 -26.755716 30.079064 24.955573 111.863076 -23.308616 -8.702505 12.423033 -9.801917 0.264992 10.061117 -10.888461 1.383749 -17.412838 3.016197 0.000001 -0.000002 0.000002 19.443599 11.174463 -13.340213 -0.118678 -0.322694 18.035579 0.000001 0.000000 0.000002 4.320466 2.436998 -4.811731 0.349135 -0.461286 26.890342 0.000001 -0.000001 0.000001 -7.005611 -10.695148 5.719825 0.111878 -0.089128 26.155907 0.000001 0.000001 0.000002 -19.433495 -20.238240 5.987880 0.223809 -0.085779 36.844557 -0.000006 -0.000002 -0.000004 -0.000000 -0.000001 -0.000001 -0.000001 0.000000 0.000001 -0.000001 0.000000 0.000001 -0.000001 0.000000 0.000001 -0.000001 0.000000 0.000001 -0.000001 0.000000 -0.000001 -0.000002 -0.000000 0.000003 -0.000001 0.000000 0.000001 -0.000001 0.000000 -0.000001 -0.000002 -0.000000 0.000003 0.000002 0.000000 -0.000000 0.000002 0.000000 -0.000000 -0.000000 0.000003 0.000000 
0.899184 73.622490 0.212895 5.574377 -58.407871 8.857800 -0.000000 -0.000001 -0.000000 -37.786888 9.932623 23.782218 43.988542 -9.139408 -10.083429 -9.407302 -0.654531 -6.918694 -0.000000 -0.000001 0.000000 -0.000000 -0.000001 0.000000 -0.000000 0.000001 -0.000001 -35.158546 -7.114984 -25.615791 48.780651 6.244798 -7.397544 -18.102306 -0.894833 19.583464 0.000000 -0.000001 0.000000 0.000000 -0.000001 0.000000 -0.000000 0.000003 -0.000000 11.287472 0.141532 -2.985442 8.228279 0.118178 -5.568772 8.253253 0.147879 -5.500378 -21.475356 24.964123 11.987313 -0.630512 25.661007 -4.576021 -0.000000 -0.000000 -0.000000 -0.000000 -0.000000 -0.000000 -0.000000 -0.000000 -0.000000 -5.814881 -11.582182 -4.383232 -23.218446 9.960827 -35.768495 0.050686 -48.119922 -0.005224 20.162628 -3.727175 15.881593 -1.148911 -7.652803 7.882733 2.373428 19.986109 -2.038344 -0.000000 -0.000001 0.000000 13.331720 -1.003633 11.228933 -0.167630 0.302904 -30.659210 -0.000001 0.000000 -0.000002 8.502691 -0.336120 -0.230286 0.229715 0.658508 -29.355050 -0.000001 -0.000001 -0.000002 6.121356 3.134895 -15.328152 0.045053 0.318855 -29.440369 0.000000 0.000000 -0.000002 -5.596704 7.680446 -12.699619 0.220910 0.273577 -45.705129 0.000001 -0.000001 0.000001 0.000001 0.000001 0.000001 -5.314641 10.768638 3.988407 -44.404976 -25.442096 27.621613 26.201050 110.841649 -24.646540 -8.304505 11.423698 -12.519925 -0.561947 10.491664 -10.240565 1.987179 -18.999691 2.415174 0.000000 0.000001 0.000002 19.228610 10.991029 -13.224748 -0.117848 -0.316784 18.868929 -0.000003 0.000002 0.000007 4.388776 2.045130 -5.051560 0.350016 -0.467314 27.553707 0.000000 -0.000002 -0.000001 -6.357854 -10.958171 5.099602 0.113923 -0.100507 27.549491 -0.000002 0.000002 0.000002 -17.321688 -20.734235 6.085379 0.225122 -0.093033 39.307763 -0.000004 -0.000003 -0.000000 -0.000002 -0.000004 -0.000000 -0.000002 -0.000000 0.000002 -0.000002 -0.000000 0.000002 -0.000002 -0.000000 0.000002 -0.000002 -0.000000 0.000002 -0.000002 -0.000000 0.000001 -0.000002 -0.000001 -0.000000 -0.000002 -0.000000 0.000002 -0.000002 -0.000000 0.000001 -0.000002 -0.000001 -0.000000 0.000003 0.000001 -0.000001 0.000003 0.000001 -0.000001 -0.000000 -0.000001 -0.000000 
1.819537 72.827217 0.250996 12.016565 -58.162257 14.615196 -0.000001 0.000002 -0.000000 -43.147722 9.100643 23.507337 46.653914 -9.648950 -10.452476 -9.944552 0.472670 -6.173627 -0.000000 -0.000004 0.000000 -0.000000 -0.000004 0.000000 -0.000001 0.000001 0.000001 -40.161755 -4.750861 -25.441440 50.862916 5.661560 -7.706876 -17.908946 -1.388514 20.322944 -0.000000 0.000001 -0.000000 -0.000000 0.000001 -0.000000 0.000000 0.000001 0.000001 11.552739 0.192078 -3.476667 7.713475 0.308288 -5.531416 7.742457 0.395776 -5.307646 -21.267008 24.706744 11.785800 -1.477409 25.822507 -6.681645 0.000000 -0.000000 0.000000 0.000000 -0.000000 0.000000 0.000000 -0.000000 0.000000 -4.574184 -11.690577 -4.416575 -24.016301 9.509426 -34.835153 0.057781 -52.114152 0.002643 16.977890 -3.063246 17.904221 -1.348225 -6.878292 6.375164 2.373431 19.986105 -2.038344 0.000001 0.000000 -0.000001 13.309080 -0.996438 12.691686 -0.167874 0.301554 -29.449652 -0.000001 -0.000001 -0.000000 8.522011 -0.352984 1.572942 0.225175 0.651263 -27.892181 0.000001 -0.000001 0.000000 6.144674 3.098374 -13.054671 0.039943 0.309341 -27.637034 -0.000002 0.000001 -0.000005 -5.520636 7.626560 -9.754281 0.212393 0.265580 -43.430577 0.000000 0.000003 -0.000001 0.000001 -0.000000 0.000002 -4.804728 11.176963 7.482170 -49.708170 -25.449051 22.296541 23.808161 112.897747 -22.068664 -7.364890 8.447159 -16.282818 -2.632686 11.521935 -8.559052 3.441947 -22.987598 0.964211 -0.000001 0.000005 0.000000 18.646145 10.488138 -12.917279 -0.116674 -0.300552 21.159590 0.000001 -0.000003 0.000007 4.556182 0.994315 -5.687600 0.353035 -0.483446 29.351174 -0.000001 0.000001 0.000002 -4.705261 -11.721356 3.513917 0.121312 -0.129730 31.249898 0.000000 0.000003 0.000004 -12.016432 -22.047830 6.528184 0.230856 -0.110938 45.651297 -0.000001 -0.000000 0.000002 0.000002 0.000002 -0.000001 -0.000000 0.000000 -0.000000 -0.000000 0.000000 -0.000000 -0.000000 0.000000 -0.000000 -0.000000 0.000000 -0.000000 -0.000000 0.000000 -0.000000 -0.000002 0.000003 0.000000 -0.000000 0.000000 -0.000000 -0.000000 0.000000 -0.000000 -0.000002 0.000003 0.000000 -0.000000 -0.000002 0.000000 -0.000000 -0.000002 0.000000 -0.000001 0.000002 -0.000000 
2.636683 71.449608 0.208102 20.540110 -57.316468 22.221327 -0.000000 0.000000 0.000000 -50.485108 7.741126 23.594494 51.338915 -7.399078 -10.665238 -11.092292 -1.076841 -6.352727 0.000000 0.000002 -0.000000 0.000000 0.000002 -0.000000 -0.000001 -0.000004 0.000002 -47.163173 -1.540802 -24.883552 54.692965 4.845398 -8.232204 -18.451324 -2.152637 21.227174 -0.000000 0.000002 -0.000000 -0.000000 0.000002 -0.000000 0.000001 -0.000000 -0.000001 11.953287 0.203787 -4.127080 7.044336 0.477093 -5.529714 7.074728 0.605185 -5.134886 -20.987836 24.349877 11.493183 -2.520035 26.403389 -7.695038 0.000001 -0.000000 0.000000 0.000001 -0.000000 0.000000 0.000001 -0.000000 0.000000 -2.947780 -11.895588 -4.875131 -25.025501 9.637685 -32.856956 0.070093 -57.560572 0.015843 13.270305 -2.421545 20.592269 -1.580545 -5.827977 4.430643 2.373429 19.986107 -2.038344 -0.000003 0.000002 -0.000002 13.280955 -0.988400 14.810869 -0.168265 0.299719 -27.666202 -0.000002 0.000003 -0.000001 8.549990 -0.375780 4.124771 0.219119 0.640486 -25.772809 0.000003 -0.000001 -0.000002 6.172775 3.058649 -9.941964 0.033172 0.295512 -25.085121 0.000001 -0.000003 -0.000001 -5.471885 7.593573 -5.915756 0.201529 0.253913 -40.316520 -0.000002 0.000000 -0.000002 -0.000001 0.000001 -0.000001 -3.957646 11.814091 11.362225 -54.457044 -26.224460 17.353228 20.721856 116.341044 -18.676563 -5.494602 5.673433 -21.459338 -5.341622 12.761905 -6.236812 5.236839 -28.230423 -0.828790 -0.000001 0.000002 -0.000002 17.789381 9.732773 -12.479223 -0.117946 -0.276214 24.602994 -0.000002 0.000003 -0.000003 4.759219 -0.534210 -6.595347 0.359344 -0.506711 32.001523 0.000003 -0.000000 0.000001 -2.491811 -12.964893 1.383216 0.136717 -0.169624 36.553205 0.000000 -0.000002 0.000003 -5.017249 -23.865318 7.567011 0.243529 -0.133004 54.336228 -0.000003 -0.000002 -0.000002 -0.000002 -0.000001 -0.000003 0.000001 0.000002 -0.000001 0.000001 0.000002 -0.000001 0.000001 0.000002 -0.000001 0.000001 0.000002 -0.000001 0.000001 0.000002 -0.000003 0.000002 -0.000001 0.000001 0.000001 0.000002 -0.000001 0.000001 0.000002 -0.000003 0.000002 -0.000001 0.000001 -0.000001 0.000001 -0.000001 -0.000001 0.000001 -0.000001 -0.000000 0.000000 0.000000 
